<?xml version="1.0" encoding="UTF-8" standalone="no"?>
<!-- Generator: Adobe Illustrator 18.0.0, SVG Export Plug-In . SVG Version: 6.00 Build 0)  -->

<svg
   xmlns:dc="http://purl.org/dc/elements/1.1/"
   xmlns:cc="http://creativecommons.org/ns#"
   xmlns:rdf="http://www.w3.org/1999/02/22-rdf-syntax-ns#"
   xmlns:svg="http://www.w3.org/2000/svg"
   xmlns="http://www.w3.org/2000/svg"
   xmlns:sodipodi="http://sodipodi.sourceforge.net/DTD/sodipodi-0.dtd"
   xmlns:inkscape="http://www.inkscape.org/namespaces/inkscape"
   version="1.1"
   id="Capa_1"
   x="0px"
   y="0px"
   viewBox="0 0 297.773 297.773"
   style="enable-background:new 0 0 297.773 297.773;"
   xml:space="preserve"
   sodipodi:docname="larry.svg"
   inkscape:version="0.92.3 (2405546, 2018-03-11)"><metadata
   id="metadata43"><rdf:RDF><cc:Work
       rdf:about=""><dc:format>image/svg+xml</dc:format><dc:type
         rdf:resource="http://purl.org/dc/dcmitype/StillImage" /><dc:title></dc:title></cc:Work></rdf:RDF></metadata><defs
   id="defs41" /><sodipodi:namedview
   pagecolor="#ffffff"
   bordercolor="#666666"
   borderopacity="1"
   objecttolerance="10"
   gridtolerance="10"
   guidetolerance="10"
   inkscape:pageopacity="0"
   inkscape:pageshadow="2"
   inkscape:window-width="2560"
   inkscape:window-height="1521"
   id="namedview39"
   showgrid="false"
   inkscape:snap-center="true"
   inkscape:snap-text-baseline="true"
   inkscape:zoom="1.5851"
   inkscape:cx="-81.764756"
   inkscape:cy="-39.468159"
   inkscape:window-x="-9"
   inkscape:window-y="-9"
   inkscape:window-maximized="1"
   inkscape:current-layer="g6" />
<g
   id="g6">
	<path
   d="m 148.886,54.552 c -52.016,0 -94.333,42.318 -94.333,94.334 0,52.016 42.317,94.333 94.333,94.333 52.016,0 94.334,-42.317 94.334,-94.333 0,-52.016 -42.318,-94.334 -94.334,-94.334 z"
   id="path2"
   inkscape:connector-curvature="0"
   sodipodi:nodetypes="sssss" />
	<path
   d="M290.903,131.693l-15.645-16.453c-3.406-3.582-5.008-8.513-4.357-13.413l2.986-22.505   c1.748-13.178-7.141-25.411-20.213-27.82l-22.328-4.115c-4.861-0.896-9.057-3.942-11.41-8.289l-10.811-19.963   c-6.332-11.688-20.715-16.36-32.705-10.626l-20.482,9.796c-4.459,2.133-9.645,2.133-14.104,0l-20.48-9.796   c-11.992-5.734-26.375-1.062-32.705,10.626L77.837,39.097c-2.354,4.347-6.549,7.393-11.41,8.289l-22.328,4.114   c-13.07,2.41-21.961,14.644-20.213,27.821l2.988,22.505c0.648,4.9-0.953,9.831-4.359,13.413L6.87,131.693   c-9.16,9.632-9.16,24.753,0,34.387l15.645,16.454c3.406,3.581,5.008,8.512,4.359,13.411l-2.988,22.507   c-1.748,13.178,7.142,25.41,20.213,27.82l22.33,4.115c4.859,0.896,9.055,3.942,11.408,8.289l10.812,19.962   c6.33,11.688,20.713,16.36,32.703,10.627l20.482-9.796c4.459-2.133,9.645-2.133,14.104,0l20.482,9.796   c11.99,5.733,26.373,1.061,32.705-10.627l10.811-19.962c2.354-4.347,6.549-7.394,11.41-8.289l22.33-4.115   c13.07-2.41,21.959-14.644,20.211-27.82l-2.986-22.507c-0.65-4.899,0.951-9.83,4.357-13.411l15.645-16.454   C300.063,156.446,300.063,141.325,290.903,131.693z M148.887,262.996c-63.021,0-114.111-51.088-114.111-114.109   c0-63.021,51.09-114.109,114.111-114.109c63.02,0,114.109,51.089,114.109,114.109C262.997,211.908,211.907,262.996,148.887,262.996   z"
   id="path4" />
<flowRoot
   xml:space="preserve"
   id="flowRoot45"
   style="font-style:normal;font-weight:normal;font-size:40px;line-height:1.25;font-family:sans-serif;letter-spacing:0px;word-spacing:0px;fill:#ffffff;fill-opacity:1;stroke:none;"><flowRegion
     id="flowRegion47"
     style="fill:#ffffff;"><rect
       id="rect49"
       width="86.114441"
       height="64.349251"
       x="107.87963"
       y="107.56419"
       style="fill:#ffffff;" /></flowRegion><flowPara
     id="flowPara51" /></flowRoot><g
   aria-label="L"
   id="text55"
   style="fill:#ffffff;fill-opacity:1;stroke:none;stroke-width:3.96312308"><path
     d="M 185.01386,206.84435 H 112.09859 V 91.588669 h 15.32614 V 193.22111 h 57.58913 z"
     style="stroke-width:3.96312308"
     id="path4565"
     inkscape:connector-curvature="0" /></g></g>
<g
   id="g8">
</g>
<g
   id="g10">
</g>
<g
   id="g12">
</g>
<g
   id="g14">
</g>
<g
   id="g16">
</g>
<g
   id="g18">
</g>
<g
   id="g20">
</g>
<g
   id="g22">
</g>
<g
   id="g24">
</g>
<g
   id="g26">
</g>
<g
   id="g28">
</g>
<g
   id="g30">
</g>
<g
   id="g32">
</g>
<g
   id="g34">
</g>
<g
   id="g36">
</g>
</svg>